<svg width="100%" height="100%" id="svg" viewBox="0 0 1440 600" xmlns="http://www.w3.org/2000/svg" class="transition duration-300 ease-in-out delay-150"><defs><linearGradient id="gradient" x1="0%" y1="50%" x2="100%" y2="50%"><stop offset="5%" stop-color="#eb144c88"></stop><stop offset="95%" stop-color="#9900ef88"></stop></linearGradient></defs><path d="M 0,600 C 0,600 0,200 0,200 C 66.9834504871131,163.01852262917745 133.9669009742262,126.03704525835491 187,150 C 240.0330990257738,173.9629547416451 279.1158465902084,258.87034159575785 326,252 C 372.8841534097916,245.12965840424218 427.5697126649402,146.4815883586139 474,137 C 520.4302873350598,127.51841164138611 558.6053027500308,207.20330496978664 615,218 C 671.3946972499692,228.79669503021336 746.0090763349367,170.7051917622395 802,175 C 857.9909236650633,179.2948082377605 895.3583919102231,245.97592798125538 951,266 C 1006.6416080897769,286.0240720187446 1080.5573560241708,259.3910963127389 1144,249 C 1207.4426439758292,238.60890368726106 1260.4121839930942,244.4596867677889 1308,239 C 1355.5878160069058,233.5403132322111 1397.793908003453,216.77015661610557 1440,200 C 1440,200 1440,600 1440,600 Z" stroke="none" stroke-width="0" fill="url(#gradient)" class="transition-all duration-300 ease-in-out delay-150 path-0"></path><defs><linearGradient id="gradient" x1="0%" y1="50%" x2="100%" y2="50%"><stop offset="5%" stop-color="#eb144cff"></stop><stop offset="95%" stop-color="#9900efff"></stop></linearGradient></defs><path d="M 0,600 C 0,600 0,400 0,400 C 47.43489949438897,394.2824022690837 94.86979898877794,388.5648045381675 156,382 C 217.13020101122206,375.4351954618325 291.9557035392773,368.0231841164138 348,375 C 404.0442964607227,381.9768158835862 441.3073868541128,403.3424589961771 495,404 C 548.6926131458872,404.6575410038229 618.8147490442717,384.6069798988778 667,366 C 715.1852509557283,347.3930201011222 741.4336169688002,330.22962140831174 785,340 C 828.5663830311998,349.77037859168826 889.4507830805277,386.4745344678752 954,393 C 1018.5492169194723,399.5254655321248 1086.7632507090889,375.87224072018745 1138,358 C 1189.2367492909111,340.12775927981255 1223.4962140831174,328.036502651375 1271,336 C 1318.5037859168826,343.963497348625 1379.2518929584412,371.9817486743125 1440,400 C 1440,400 1440,600 1440,600 Z" stroke="none" stroke-width="0" fill="url(#gradient)" class="transition-all duration-300 ease-in-out delay-150 path-1"></path></svg>