<svg width="100%" height="100%" id="svg" viewBox="0 0 1440 400" xmlns="http://www.w3.org/2000/svg" class="transition duration-300 ease-in-out delay-150"><defs><linearGradient id="gradient" x1="0%" y1="50%" x2="100%" y2="50%"><stop offset="5%" stop-color="#002bdcff"></stop><stop offset="95%" stop-color="#32ded4ff"></stop></linearGradient></defs><path d="M 0,400 C 0,400 0,200 0,200 C 48.15731717898636,162.09019352987946 96.31463435797272,124.18038705975891 138,135 C 179.68536564202728,145.8196129402411 214.89877974709543,205.3686452908438 256,218 C 297.10122025290457,230.6313547091562 344.09024665364535,196.34503177686602 393,182 C 441.90975334635465,167.65496822313398 492.7402336383228,173.25122760169216 541,161 C 589.2597663616772,148.74877239830784 634.9488187930634,118.65005781636532 670,128 C 705.0511812069366,137.34994218363468 729.4644911894234,186.14854113284656 763,227 C 796.5355088105766,267.85145886715344 839.1932164492429,300.75577765224824 894,273 C 948.8067835507571,245.24422234775176 1015.7626430136049,156.82834825816025 1063,160 C 1110.237356986395,163.17165174183975 1137.756211496337,257.93082931511077 1182,272 C 1226.243788503663,286.06917068488923 1287.2125110010466,219.44833448139693 1333,194 C 1378.7874889989534,168.55166551860307 1409.3937444994767,184.27583275930152 1440,200 C 1440,200 1440,400 1440,400 Z" stroke="none" stroke-width="0" fill="url(#gradient)" class="transition-all duration-300 ease-in-out delay-150 path-0"></path></svg>