<svg width="100%" height="100%" id="svg" viewBox="0 0 1440 400" xmlns="http://www.w3.org/2000/svg" class="transition duration-300 ease-in-out delay-150"><defs><linearGradient id="gradient" x1="0%" y1="50%" x2="100%" y2="50%"><stop offset="5%" stop-color="#eb144cff"></stop><stop offset="95%" stop-color="#9900efff"></stop></linearGradient></defs><path d="M 0,400 C 0,400 0,200 0,200 C 57.369597398821014,205.7835390837717 114.73919479764203,211.56707816754343 156,193 C 197.26080520235797,174.43292183245657 222.41281820825293,131.51522641359801 267,147 C 311.58718179174707,162.48477358640199 375.60953236934625,236.37201617806448 426,262 C 476.39046763065375,287.6279838219355 513.1490523143619,264.99670887414413 568,245 C 622.8509476856381,225.00329112585584 695.7942583732057,207.64114832535887 744,214 C 792.2057416267943,220.35885167464113 815.6739141928151,250.43869782442044 855,244 C 894.3260858071849,237.56130217557956 949.5100848555342,194.60406037695944 1006,177 C 1062.4899151444658,159.39593962304056 1120.2857463850485,167.1450606677417 1172,172 C 1223.7142536149515,176.8549393322583 1269.346929604272,178.8156969520738 1313,183 C 1356.653070395728,187.1843030479262 1398.326535197864,193.59215152396308 1440,200 C 1440,200 1440,400 1440,400 Z" stroke="none" stroke-width="0" fill="url(#gradient)" class="transition-all duration-300 ease-in-out delay-150 path-0"></path></svg>